<svg xmlns="http://www.w3.org/2000/svg" version="1.1" xmlns:xlink="http://www.w3.org/1999/xlink" xmlns:svgjs="http://svgjs.com/svgjs" width="435.366" height="427.5"><svg viewBox="-7.683 94.05 435.366 427.5" xmlns="http://www.w3.org/2000/svg" overflow="visible">
    <g id="SvgjsG1019" stroke="none" stroke-width="1" fill="none" fill-rule="evenodd">
        <g id="SvgjsG1018" transform="translate(0.000000, 100.000000)">
            <circle id="SvgjsCircle1017" fill="#FBD8DA" cx="210" cy="210" r="210"></circle>
            <path d="M166.486805,333 C183.280479,348.425802 203.37797,356.138703 226.77928,356.138703 C250.180589,356.138703 264.386112,349.922616 269.395848,337.490441 C319.610575,350.064339 347.406558,358.729603 352.783799,363.486233 C353.101373,363.767154 353.069088,364.031484 352.686943,364.279224 L352.896358,364.087043 C310.720682,402.605968 261.561939,421.222875 205.420128,419.937763 C149.278836,418.652664 103.491364,399.835822 68.0577129,363.487238 C68.0382012,363.487164 68.0191011,363.486699 68,363.486233 C102.71611,345.104055 135.545045,334.941978 166.486805,333 Z" id="SvgjsPath1016" fill="#323C84"></path>
        </g>
        <g id="SvgjsG1015" transform="translate(84.000000, 157.000000) scale(2.4607843137254903 2.4634146341463414)">
            <g id="SvgjsG1014" stroke="none" stroke-width="1" fill="none" fill-rule="evenodd">
                <g id="SvgjsG1013" transform="translate(32.500000, 25.500000)">
                    <path d="M30.7767,0.5676 C45.7477,-1.3684 55.5807,16.5326 54.5617,32.3626 C54.4857,33.5426 54.9987,35.8566 55.1797,36.9336 C56.7807,46.4006 48.3307,70.7006 38.7557,71.4606 C38.3803183,71.4903702 38.0020397,71.5077643 37.6213478,71.5132798 C33.4398567,84.9144331 44.1499,89.254 44.1499,89.254 C38.3569,96.607 26.5789,97.275 26.5789,97.275 C8.0839,97.943 0.6259,86.473 0.6259,86.473 C16.6550083,81.083045 10.1556786,56.0912938 7.99144992,49.115552 C7.7631801,48.4631396 7.60716858,47.9590756 7.51793398,47.6565987 C7.46420413,47.4985927 7.42642476,47.3913952 7.40791403,47.3393646 C2.83753962,48.4696808 2.0687,43.8703838 2.0687,41.5796 C2.0687,39.2856 -0.2433,37.1386 1.4947,34.1256 C4.0567,29.6826 8.9497,32.4046 8.9497,32.4046 C11.2427,16.3496 14.7147,2.6446 30.7767,0.5676 Z" id="SvgjsPath1012" fill="#ffbf94"></path>
                    <path d="M10.9747,55.6816 C15.2012616,63.0778418 27.2956206,71.6606229 37.6173544,71.5133372 C33.1096076,84.9575519 22.1724502,92.1250987 9.6239,90.429 C3.2939,89.574 0.6259,86.473 0.6259,86.473 C16.6609027,81.0810629 10.1508955,56.0729104 7.9890641,49.1078636 C8.53782006,50.6782986 9.50619578,53.1121587 10.9747,55.6816 Z" id="SvgjsPath1011" fill-opacity=".25" fill="#000" style="mix-blend-mode:overlay"></path>
                </g>
                <g id="SvgjsG1010" transform="translate(0.200000, 10.100000)">
                    <path d="M87.0421,29.69 C86.8961,28.961 86.7871,28.321 86.7101,27.807 C86.9031,27.628 87.0531,27.421 87.1121,27.164 C87.2151,26.718 87.2701,26.294 87.3021,25.875 C87.4911,26.11 87.7911,26.598 87.9251,27.199 C87.9301,27.224 87.9351,27.25 87.9381,27.276 C87.9761,27.467 87.9991,27.669 87.9911,27.878 C87.9831,28.078 87.9441,28.27 87.8871,28.457 C87.8701,28.509 87.8471,28.559 87.8251,28.611 C87.7741,28.742 87.7121,28.87 87.6361,28.994 C87.5991,29.054 87.5601,29.114 87.5171,29.173 C87.4301,29.293 87.3271,29.409 87.2161,29.521 C87.1711,29.567 87.1321,29.615 87.0821,29.66 C87.0701,29.67 87.0541,29.68 87.0421,29.69 M84.5321,30.76 C84.4441,30.773 84.3531,30.784 84.2611,30.795 C84.2431,30.797 84.2261,30.798 84.2101,30.8 C84.3231,30.787 84.4361,30.774 84.5441,30.757 C84.5401,30.758 84.5361,30.759 84.5321,30.76 M83.6491,30.849 C83.5691,30.854 83.4911,30.859 83.4101,30.862 C83.1421,30.871 82.8631,30.872 82.5751,30.861 C82.5441,30.86 82.5151,30.861 82.4831,30.86 C81.4461,30.815 80.2941,30.643 79.0751,30.316 L79.0461,30.307 C77.0071,29.755 74.7911,28.768 72.6421,27.222 C72.6201,27.207 72.5991,27.19 72.5761,27.174 C72.1771,26.884 71.7791,26.574 71.3861,26.244 C71.3531,26.216 71.3181,26.188 71.2841,26.16 C70.4481,25.451 69.6301,24.651 68.8471,23.75 C66.5971,21.159 64.1771,19.982 61.9471,19.559 C65.6241,19.994 69.5801,21.982 73.9191,24.953 C76.6161,26.798 80.0841,28.03 82.7961,28.375 C83.2041,29.169 83.5831,29.987 83.9341,30.824 C83.8391,30.833 83.7471,30.844 83.6491,30.849 M94.3431,71.223 C92.9821,68.616 95.4131,65.491 95.9101,62.947 C96.7501,58.658 93.3961,55.453 93.8671,51.15 C94.1241,48.808 95.1481,46.337 94.1501,44.203 C93.2181,42.206 91.2631,40.738 90.1871,38.753 C88.8581,36.303 87.9481,33.647 87.3131,30.939 C87.2411,30.99 87.1791,31.043 87.1011,31.093 C88.8081,30.006 89.1521,28.671 89.1401,27.732 C89.1281,26.827 88.7721,25.988 88.3941,25.419 C88.1271,24.981 87.8471,24.651 87.6571,24.53 C87.4771,24.413 87.3561,24.356 87.2611,24.322 C87.0261,22.669 86.2081,21.003 84.7481,18.786 C80.3051,12.037 74.7201,8.077 64.9651,3.734 C54.0151,-1.14 44.5261,-1.492 34.5881,4.162 C34.5341,4.192 34.4671,4.241 34.4071,4.278 C32.2711,2.329 28.5111,1.426 25.3291,1.826 C20.7981,2.395 16.6421,4.329 14.4331,9.483 C12.0091,15.136 13.1551,20.43 10.1121,24.701 C7.6671,28.132 4.0461,31.156 1.5711,34.567 C-0.6789,37.668 -0.0729,41.524 0.7371,45.268 C1.4081,48.374 2.3081,50.029 1.2761,53.858 C0.2651,57.619 -0.5649,60.614 0.4911,64.363 C0.6141,64.799 0.7641,65.211 0.9271,65.609 C0.6571,67.629 1.4381,69.489 2.2021,71.294 C2.8131,72.742 3.4461,74.238 3.5671,75.844 C3.7671,78.498 2.5001,81.309 0.2631,83.18 C0.0201,83.383 -0.0129,83.746 0.1901,83.988 C0.3041,84.124 0.4671,84.194 0.6311,84.194 C0.7611,84.194 0.8921,84.15 0.9981,84.06 C3.5151,81.956 4.9371,78.775 4.7111,75.758 C4.5761,73.964 3.9061,72.38 3.2591,70.848 C2.8391,69.857 2.4351,68.894 2.2061,67.93 C3.4421,69.668 4.9991,70.863 6.3121,71.57 C6.8751,72.681 7.6531,74.861 7.7901,77.744 C7.9891,81.92 6.0261,86.026 6.4781,90.498 C7.2551,98.198 14.2581,100.227 14.8561,108.703 C15.0871,110.346 19.3971,108.366 21.6771,110.429 C22.7771,111.95 22.5571,113.916 22.9441,115.786 C23.6571,119.222 24.6621,122.672 26.6491,125.564 C28.6381,128.456 31.7491,130.742 35.2481,131.019 C34.1941,127.327 32.7461,123.119 34.5661,119.739 C36.7761,115.635 38.2491,116.898 40.5631,111.953 C42.2001,108.456 41.6161,105.008 40.1431,102.378 C37.9051,98.382 40.8861,96.459 42.4171,91.547 C42.5601,91.09 42.6341,90.63 42.6831,90.16 C45.4841,78.235 39.7181,62.409 39.7181,62.409 C39.7181,62.409 35.9631,63.646 34.7441,59.312 C34.5011,58.449 34.4461,57.728 34.4291,57.064 C34.4111,56.431 34.3591,55.771 34.1031,55.023 C33.7871,54.102 33.4831,53.34 33.3351,52.721 C32.9021,50.906 33.7611,49.165 35.2551,47.966 C36.6161,46.875 38.2551,46.863 39.4791,47.136 C40.0051,47.259 40.5501,47.46 41.1031,47.778 C44.7921,46.601 48.7751,42.904 51.9311,36.751 C54.7351,31.282 54.1861,23.817 54.0001,22.003 C54.0291,22.005 54.0591,22 54.1141,21.996 C54.1851,21.987 54.2551,21.971 54.3191,21.931 C54.6261,21.747 61.8681,17.478 67.9811,24.512 C72.5931,29.82 78.6531,32.057 82.9991,32.057 C83.2471,32.057 83.4681,32.027 83.7021,32.011 C83.8991,31.999 84.1011,31.994 84.2881,31.972 C84.3211,31.968 84.3581,31.969 84.3901,31.965 C86.2611,36.901 87.1391,42.42 86.7981,47.712 C86.7221,48.892 87.2351,51.207 87.4171,52.283 C89.0171,61.75 80.5671,86.05 70.9931,86.81 C70.6201,86.839 70.2431,86.854 69.8651,86.86 C68.8101,89.565 68.6491,92.94 69.2001,95.788 C70.6671,102.223 76.3981,104.601 76.3981,104.601 C76.3111,104.713 76.2431,104.798 76.1671,104.896 C76.2431,104.798 76.3101,104.713 76.3981,104.601 C81.1281,106.658 88.8391,108.184 89.5521,108.833 C90.5181,109.213 91.4521,109.685 92.3611,110.223 C92.2531,108.258 91.6111,106.377 90.5691,104.814 C86.0371,98.015 94.9631,95.681 93.3451,87.473 C92.0631,80.978 98.5471,79.266 94.3431,71.223" id="SvgjsPath1009" fill="#50271b"></path>
                    <path d="M22.1928,15.7968 C21.6728,24.8788 23.2288,31.6658 26.2798,36.7028 C25.7328,38.4378 24.4408,39.9708 23.7098,40.7368 C23.3798,41.0828 23.0368,41.4258 22.6938,41.7708 C20.9088,43.5608 19.0648,45.4108 18.5338,47.9398 C18.1358,49.8428 18.5798,51.7588 19.0108,53.6118 C19.4818,55.6378 19.9258,57.5508 19.2888,59.3308 C18.8918,60.4418 18.1098,61.3708 17.2808,62.3548 C16.3908,63.4138 15.4688,64.5098 15.0238,65.8848 C14.3268,68.0338 14.9598,70.2008 15.5728,72.2978 C15.8038,73.0848 16.0408,73.8988 16.1988,74.6958 C16.4288,75.8508 16.6648,77.0458 14.4028,78.7328 C14.1478,78.9228 14.0958,79.2838 14.2848,79.5378 C14.3988,79.6888 14.5718,79.7688 14.7458,79.7688 C14.8658,79.7688 14.9868,79.7318 15.0898,79.6548 C17.9348,77.5338 17.5698,75.6918 17.3248,74.4598 C17.1588,73.6248 16.9138,72.7868 16.6768,71.9758 C16.0868,69.9568 15.5308,68.0508 16.1168,66.2398 C16.4938,65.0778 17.3038,64.1148 18.1618,63.0958 C19.0188,62.0768 19.9048,61.0248 20.3708,59.7188 C21.1218,57.6198 20.6178,55.4508 20.1308,53.3518 C19.7098,51.5408 19.3128,49.8298 19.6588,48.1758 C20.0758952,46.1898476 21.5252376,44.5869973 23.0314139,43.0621083 L23.5078,42.5828 C23.8578,42.2318 24.2058,41.8828 24.5418,41.5308 C25.2318,40.8078 26.3548,39.4748 27.0568,37.8768 C30.1878,42.4038 34.6228,45.3978 39.9138,47.2698 C39.7688,47.2248 39.6218,47.1698 39.4798,47.1368 C38.2548,46.8638 36.6158,46.8748 35.2548,47.9668 C33.7608,49.1648 32.9028,50.9058 33.3348,52.7208 C33.4838,53.3398 33.7868,54.1018 34.1028,55.0238 C34.3598,55.7708 34.4108,56.4308 34.4288,57.0638 C34.4468,57.7278 34.5008,58.4488 34.7438,59.3118 C34.8698,59.7598 35.0288,60.1358 35.2008,60.4718 C35.0288,60.7628 34.8308,61.0388 34.6258,61.2828 C34.4268,61.5188 34.2158,61.7528 34.0038,61.9868 C33.0918,62.9988 32.1488,64.0448 31.9158,65.4608 C31.6878,66.8498 32.2158,68.1828 32.7278,69.4718 C33.3028,70.9188 33.7988,72.1688 33.2048,73.2738 C32.9308,73.7848 32.4418,74.1788 31.9218,74.5968 C31.3798,75.0328 30.8198,75.4838 30.4298,76.1218 C29.7218,77.2788 29.7078,78.8128 30.3888,80.6808 C30.5068,81.0058 30.6368,81.3288 30.7678,81.6528 C31.1608,82.6288 31.5328,83.5498 31.5698,84.5118 C31.6468,86.5298 30.6258,88.2318 28.4478,89.7168 C28.1868,89.8948 28.1178,90.2528 28.2978,90.5148 C28.4078,90.6788 28.5888,90.7668 28.7738,90.7668 C28.8848,90.7668 28.9968,90.7338 29.0968,90.6668 C31.5918,88.9648 32.8108,86.8798 32.7178,84.4688 C32.6748,83.3058 32.2468,82.2468 31.8338,81.2228 C31.7078,80.9108 31.5828,80.6008 31.4688,80.2878 C30.9148,78.7648 30.8948,77.5648 31.4098,76.7218 C31.6968,76.2548 32.1558,75.8848 32.6438,75.4918 C33.2288,75.0208 33.8338,74.5338 34.2188,73.8178 C35.0648,72.2418 34.4198,70.6178 33.7968,69.0478 C33.3218,67.8518 32.8738,66.7218 33.0508,65.6468 C33.2288,64.5648 34.0208,63.6868 34.8588,62.7568 C35.0778,62.5128 35.2978,62.2698 35.5048,62.0228 C35.6468,61.8548 35.7828,61.6758 35.9128,61.4898 C37.4938,63.1328 39.7178,62.4088 39.7178,62.4088 C39.7178,62.4088 45.4848,78.2348 42.6828,90.1598 C42.6338,90.6308 42.5598,91.0898 42.4168,91.5478 C40.8858,96.4588 37.9058,98.3828 40.1428,102.3778 C41.6158,105.0078 42.1998,108.4558 40.5638,111.9528 C38.2488,116.8978 36.7768,115.6358 34.5668,119.7388 C32.7458,123.1188 34.1948,127.3268 35.2478,131.0188 C31.7488,130.7418 28.6378,128.4558 26.6498,125.5638 C24.6618,122.6718 23.6568,119.2218 22.9448,115.7858 C22.5568,113.9158 22.7778,111.9498 21.6768,110.4298 C19.3978,108.3668 15.0868,110.3468 14.8568,108.7028 C14.2578,100.2268 7.2548,98.1978 6.4778,90.4978 C6.0268,86.0258 7.9888,81.9208 7.7898,77.7438 C7.6648,75.1158 7.0088,73.0818 6.4658,71.8998 C5.1678,66.8158 11.5878,62.3218 8.9708,54.3068 C8.9238,54.1638 8.8888,54.0278 8.8488,53.8888 C8.4328,55.2958 7.5728,56.9298 5.4788,59.0258 C2.9958,61.5088 1.8818,64.1048 2.0698,66.9618 C2.1018,67.4228 2.1588,67.7248 2.2058,67.9298 C2.4348,68.8938 2.8388,69.8568 3.2588,70.8478 C3.9058,72.3808 4.5758,73.9648 4.7108,75.7588 C4.9368,78.7748 3.5148,81.9558 0.9978,84.0598 C0.8918,84.1498 0.7608,84.1938 0.6308,84.1938 C0.4668,84.1938 0.3038,84.1238 0.1908,83.9878 C-0.0122,83.7458 0.0198,83.3838 0.2628,83.1798 C2.4998,81.3088 3.7668,78.4978 3.5678,75.8448 C3.4468,74.2378 2.8138,72.7418 2.2018,71.2948 C1.4758,69.5768 0.7448,67.8078 0.9048,65.9018 L0.9048,65.9018 L0.9068,65.8758 C0.9148,65.7868 0.9148,65.6988 0.9268,65.6088 L0.9268,65.6088 L0.9368,65.5968 C1.1298,62.9568 2.3508,60.5268 4.6658,58.2128 C7.6348,55.2428 7.8718,53.4698 8.1238,51.5908 C8.3238,50.0998 8.5468,48.5568 10.1318,46.5618 C12.1768,43.6838 15.2758,41.1998 14.6958,35.4978 C14.0188,28.8358 18.2918,26.3248 22.1928,15.7968 Z M87.3102,30.948 C87.3572,31.132 87.4032,31.379 87.5342,31.777 C88.1552,34.193 88.9962,36.557 90.1862,38.753 C91.2632,40.738 93.2182,42.206 94.1512,44.203 C95.1482,46.338 94.1242,48.808 93.8672,51.15 C93.3952,55.453 96.7492,58.658 95.9102,62.947 C95.4132,65.491 92.9812,68.617 94.3432,71.223 C98.5462,79.266 92.0632,80.978 93.3452,87.473 C94.9632,95.681 86.0372,98.015 90.5692,104.814 C91.6112,106.377 92.2532,108.258 92.3612,110.223 C91.4522,109.685 90.5172,109.213 89.5522,108.833 C88.8392,108.184 81.1282,106.658 76.3982,104.601 L76.3982,104.601 C76.1948811,104.514778 70.6410036,102.108089 69.2002,95.788 C68.6492,92.94 68.8092,89.566 69.8652,86.86 C70.2432,86.854 70.6202,86.839 70.9932,86.81 C74.6702,86.518 78.1792,82.749 81.0182,77.687 C81.3692,78.191 81.6502,78.761 81.8382,79.385 C82.2962,80.914 82.1382,82.496 81.4032,83.724 C81.2842,83.923 81.1512,84.117 81.0192,84.312 C80.6492,84.854 80.2672,85.414 80.1082,86.112 C79.8672,87.168 80.2122,88.143 80.5462,89.085 C80.7872,89.769 81.0152,90.415 81.0082,91.047 C80.9982,91.875 80.5882,92.655 80.1532,93.482 C79.8672,94.027 79.5712,94.591 79.3752,95.2 C78.6872,97.329 79.4072,99.817 81.1242,101.249 C81.2312,101.339 81.3622,101.383 81.4922,101.383 C81.6562,101.383 81.8202,101.313 81.9332,101.176 C82.1372,100.932 82.1042,100.57 81.8602,100.366 C80.5162,99.244 79.9302,97.22 80.4692,95.553 C80.6362,95.038 80.8962,94.542 81.1722,94.017 C81.6492,93.106 82.1442,92.165 82.1582,91.062 C82.1682,90.224 81.8942,89.45 81.6302,88.702 C81.3382,87.878 81.0622,87.099 81.2292,86.368 C81.3412,85.882 81.6462,85.434 81.9702,84.959 C82.1142,84.746 82.2592,84.533 82.3892,84.315 C83.2902,82.81 83.4902,80.892 82.9392,79.055 C82.6592,78.123 82.2052,77.281 81.6212,76.577 C85.8192,68.553 88.3582,57.853 87.4172,52.283 C87.2352,51.207 86.7212,48.892 86.7982,47.712 C87.1092,42.874 86.3922,37.849 84.8382,33.25 C84.7532,32.935 84.5372,32.365 84.3982,31.964 C85.5772,31.788 86.9712,31.152 87.3102,30.948 Z M28.0191,18.087 C28.3421,18.07 28.6491,18.356 28.6561,18.701 C28.7701,25.04 31.4181,29.439 32.9861,31.497 C35.0261,34.174 40.7811,38.583 43.7891,39.773 C44.1091,39.9 44.2671,40.263 44.1401,40.584 C44.0431,40.83 43.8081,40.979 43.5591,40.979 C43.4811,40.979 43.4041,40.965 43.3281,40.935 C40.1061,39.66 34.1741,35.117 31.9921,32.254 C30.3311,30.075 27.5271,25.419 27.4060037,18.724 C27.4001,18.378 27.6751,18.094 28.0191,18.087 Z M32.5944,16.7449 C32.9104,16.6049 33.2794,16.7499 33.4184,17.0669 C35.9304,22.7979 41.8024,27.0609 48.0294,27.6759 C48.3734,27.7099 48.6244,28.0159 48.5904,28.3599 C48.5574,28.6819 48.2864,28.9229 47.9684,28.9229 C47.9484,28.9229 47.9274,28.9219 47.9064,28.9199 C41.1394,28.2519 35.0044,23.7959 32.2734,17.5689 C32.1344,17.2519 32.2784,16.8839 32.5944,16.7449 Z" id="SvgjsPath1008" fill-opacity=".25" fill="#000" style="mix-blend-mode:overlay"></path>
                </g>
            </g>
        </g>
        <g id="SvgjsG1007" transform="translate(172.000000, 280.000000) scale(2.490566037735849 2.4571428571428573)">
            <g id="SvgjsG1006" stroke="none" stroke-width="1" fill="none" fill-rule="evenodd">
                <g id="SvgjsG1005" transform="translate(0.000000, -2.500000)">
                    <path d="M38.9079,29.4061 C39.8149,29.3951 40.6439,30.4911 41.4799,31.1401 C41.6942866,31.3065317 41.8679,31.4493544 42.0075536,31.5697318 C42.3922291,31.4028683 42.7442076,31.2193513 43.0677,31.0183 C43.3367,30.8523 43.6907,30.9343 43.8577,31.2023 C44.0247,31.4713 43.9427,31.8253 43.6737,31.9923 C43.2729997,32.2412762 42.836785,32.4655407 42.3595214,32.6667255 C41.936342,33.8144479 40.5916948,36.2686734 36.7609,36.5441 C32.7272105,36.834099 30.4826665,34.5164171 29.5657701,33.2460097 C28.9600172,33.1035598 28.419628,32.9388751 27.9847,32.7553 C27.6927,32.6323 27.5557,32.2963 27.6787,32.0043 C27.8017,31.7123 28.1367,31.5743 28.4297,31.6983 C28.9321107,31.910294 29.6007855,32.0954734 30.3553101,32.2497096 C31.8214269,31.6053192 33.3765535,29.8155995 34.5859,29.6011 C36.1229,29.3291 36.3309,30.0181 37.0449,29.9421 C37.6679,29.8751 38.0009,29.4171 38.9079,29.4061 Z M37.832,3.6284 C38.0746667,3.77151111 38.1735309,4.06474568 38.0794294,4.31987874 L38.035,4.4134 C38.021,4.4374 36.636,6.7954 36.401,8.1414 C36.031,10.2684 36.522,12.3824 37.902,14.6044 C38.429,15.4524 39.099,16.1804 39.747,16.8854 L40.0642703,17.2315378 C41.0570136,18.3235156 41.9049048,19.3845429 41.714,20.6494 C41.53,21.8744 40.433,23.0114 38.159,24.3384 C38.068,24.3924 37.968,24.4174 37.87,24.4174 C37.673,24.4174 37.481,24.3154 37.374,24.1324 C37.215,23.8594 37.307,23.5074 37.58,23.3484 C39.475,22.2434 40.456,21.3044 40.58,20.4794 C40.6862353,19.7752824 40.1373287,19.0338637 39.3990845,18.2059943 L38.903,17.6614 C38.251,16.9524 37.511,16.1494 36.928,15.2094 C35.414,12.7714 34.857,10.3274 35.271,7.9444 C35.541,6.3924 36.986,3.9344 37.047,3.8304 C37.208,3.5584 37.561,3.4664 37.832,3.6284 Z M3.8394,13.5176 C4.0534,13.7506 4.0384,14.1136 3.8044,14.3276 C3.59728889,14.5169333 3.28746173,14.5269086 3.07086914,14.3617399 L2.9944,14.2916 C2.8114,14.0926 2.0834,13.9736 1.5754,14.3356 C1.4234,14.4446 1.2244,14.7266 1.1654,15.1626 C1.09649115,15.6640219 1.23125534,16.2256321 1.54960111,16.7895199 C2.58705544,15.708066 3.66287126,16.0233943 4.0054,16.1664 C4.5214,16.3814 4.7594,16.6954 4.6764,17.0514 C4.6044,17.3594 4.2974,17.5534 3.9874,17.4804 C3.8554,17.4494 3.7454,17.3754 3.6684,17.2764 C3.5814,17.2224 3.3564,17.1224 3.0824,17.1664 C2.78596725,17.2144702 2.48889263,17.4242923 2.21123184,17.7778676 C2.55561607,18.4602817 2.40958576,19.1591085 2.25338434,19.7564477 L2.2144,19.9036 C1.9994,20.7086 1.9564,21.0446 2.3614,21.3726 C2.6074,21.5726 2.6444,21.9336 2.4454,22.1796 C2.3314,22.3196 2.1664,22.3916 1.9994,22.3916 C1.8724,22.3916 1.7444,22.3496 1.6384,22.2636 C0.7204,21.5175 0.85702,20.58753 1.043698,19.846938 L1.1064,19.6076 C1.2864,18.9336 1.3804,18.5016 1.0764,18.1226 C0.0344,16.8296 -0.0686,15.7146 0.0284,15.0066 C0.1214,14.3296 0.4504,13.7306 0.9084,13.4036 C1.8864,12.7036 3.2614,12.8866 3.8394,13.5176 Z M28.4976,11.466 C28.5846,11.578 28.5766,11.736 28.4806,11.838 C28.3826,11.941 28.2256,11.958 28.1096,11.879 C27.344153,11.3545072 26.6141492,11.0500464 25.9230771,10.9092332 C26.2268538,11.3190798 26.4066,11.8282946 26.4066,12.3795 C26.4066,13.7325 25.3236,14.8335 23.9926,14.8335 C22.6616,14.8335 21.5786,13.7325 21.5786,12.3795 C21.5786,12.2442 21.58943,12.11143 21.610255,11.982037 C21.0191856,12.3786111 20.4984778,12.8159071 20.0566,13.187 L19.6908216,13.4924869 C19.4039265,13.7282449 19.1597429,13.9138571 18.9426,14.026 C18.5386,14.234 18.1766,14.314 17.8596,14.314 C17.1826,14.314 16.7196,13.945 16.5286,13.665 C16.4456,13.543 16.4676,13.38 16.5786,13.285 C16.7812667,13.1123333 16.9706,12.925 17.1608222,12.7277407 L17.7891528,12.0660012 C18.7603194,11.0616212 19.9913143,10.0263214 22.7306,9.679 C26.6766,9.182 28.4256,11.373 28.4976,11.466 Z M50.7005959,9.60652427 L51.0524,9.8674 C51.4244,10.1484 51.7744,10.4124 52.1914,10.5764 C52.2714,10.6074 52.3334,10.6734 52.3594,10.7554 C52.3854,10.8374 52.3734,10.9274 52.3264,10.9994 L52.2740212,11.0661462 C52.1391647,11.2158291 51.7364588,11.5434 50.8034,11.5434 C50.6904,11.5434 50.5704,11.5384 50.4414,11.5274 C50.0469,11.4959 49.6372125,11.3367125 49.187025,11.1278844 L48.5079113,10.8016322 L48.5079113,10.8016322 C48.5705819,11.0178444 48.6038,11.2470422 48.6038,11.484 C48.6038,12.837 47.5208,13.938 46.1898,13.938 C44.8588,13.938 43.7758,12.837 43.7758,11.484 C43.7758,10.9396165 43.9511246,10.4361906 44.2473851,10.0288926 C43.4336375,10.1872735 42.5339983,10.540041 41.5344,11.1814 C41.4094,11.2614 41.2424,11.2324 41.1524,11.1154 C41.0614,10.9974 41.0754,10.8294 41.1854,10.7294 L41.3678647,10.5741028 C41.9665561,10.0898307 43.9808848,8.65270303 46.9124,8.5424 C48.8837043,8.47283478 49.8939501,9.02633195 50.7005959,9.60652427 L50.7005959,9.60652427 Z" id="SvgjsPath1004" fill="#3F1B13"></path>
                    <path d="M28.6288,1.5241 C28.9848,1.5241 29.3248,1.9351 29.6388,2.7471 C29.9348,3.5131 30.2858,4.9441 29.7238,5.4541 C29.4717565,5.68323043 28.7340401,5.84461796 27.4274684,6.04526882 L24.4034546,6.48164545 C22.7893455,6.72206901 21.2578,6.99473636 20.6458,7.3301 L20.3677805,7.48871836 C18.4334788,8.62922433 14.1324585,11.8158561 14.0868,11.8501 C14.0368,11.8881 13.9768,11.9061 13.9168,11.9061 C13.8568,11.9061 13.7978,11.8881 13.7468,11.8511 C13.6458,11.7771 13.6048,11.6451 13.6458,11.5271 L13.7617759,11.2137323 C14.2478979,9.96540112 16.2545347,5.41614082 20.2588,3.5961 C24.37705,1.72365 27.641535,1.538875 28.50898,1.52507862 L28.6288,1.5241 Z" id="SvgjsPath1003" fill="#50271b"></path>
                    <path d="M48.4459,2.1719 C49.6989,2.7099 51.1269,3.7749 51.3289,4.3249 L51.3706411,4.50095048 C51.4658343,4.95285156 51.6596059,6.11901765 51.3549,6.3669 C51.3019,6.4089 51.2239,6.4309 51.1459,6.4309 C51.0819,6.4309 51.0189,6.4159 50.9719,6.3869 C50.7860667,6.27023333 50.4391222,6.13203889 50.1544463,6.0238213 L49.7462438,5.86868125 L49.7462438,5.86868125 L49.6909,5.8459 C49.0189952,5.55042381 47.3346075,5.46399751 45.7051113,5.42216477 L43.275265,5.36828054 C41.8841684,5.32776389 41.1019,5.25824783 40.8139,5.0399 C40.2099,4.5809 40.4329,3.1249 40.6609,2.3359 C40.9019,1.4999 41.2049,1.0599 41.5599,1.0279 L41.7910006,1.0124067 C42.9622353,0.953625327 45.8557621,1.06303793 48.4459,2.1719 Z" id="SvgjsPath1002" fill="#50271b"></path>
                    <g id="SvgjsG1001" transform="translate(40.000000, 0.569100)"></g>
                    <g id="SvgjsG1000" transform="translate(0.000000, 12.569100)"></g>
                </g>
            </g>
        </g>
    </g>
</svg><style>@media (prefers-color-scheme: light) { :root { filter: none; } }
</style></svg>